<svg preserveAspectRatio="xMidYMid" version="1.1" viewBox="0 0 256 256" xmlns="http://www.w3.org/2000/svg">
	<path d="M241.871 256.001c7.802 0 14.129-6.326 14.129-14.129V14.129C256 6.325 249.673 0 241.871 0H14.129C6.324 0 0 6.325 0 14.129v227.743c0 7.803 6.324 14.129 14.129 14.129h227.742" fill="#395185"/>
	<path d="m176.64 256v-99.137h33.277l4.982-38.635h-38.259v-24.668c0-11.186 3.107-18.809 19.148-18.809l20.459-9e-3v-34.555c-3.54-0.471-15.684-1.523-29.812-1.523-29.498 0-49.692 18.005-49.692 51.071v28.493h-33.362v38.635h33.362v99.137h39.897" fill="#FFF"/>
</svg>
