<svg style="enable-background:new 0 0 480 480" version="1.1" viewBox="0 0 480 480" xmlns="http://www.w3.org/2000/svg">
	<g>
		<g>
			<path d="m459.78 347.33c-4.288-5.28-11.488-7.232-17.824-4.96-17.76 6.368-37.024 9.632-57.312 9.632-97.056 0-176-78.976-176-176 0-58.4 28.832-112.77 77.12-145.47 5.472-3.712 8.096-10.4 6.624-16.832s-6.752-11.296-13.312-12.256c-7.488-1.088-14.944-1.44-22.432-1.44-132.35 0-240 107.65-240 240s107.65 240 240 240c84 0 160.42-42.688 204.35-114.18 3.552-5.792 3.04-13.184-1.216-18.496z"/>
		</g>
	</g>
</svg>
