<svg version="1.1" viewBox="0 -31 512 512" xmlns="http://www.w3.org/2000/svg">
	<g>
		<path d="m212.44 240.76h87.129v29.422h-87.129z" style="stroke-width:14.616;stroke:#000000" />
	</g>

	<g>
		<path
			d="m410.29 270.18h-81.687v14.711c0 8.1293-6.4968 14.711-14.521 14.711h-116.17c-8.0246 0-14.521-6.5816-14.521-14.711v-14.711h-81.687c-18.776 0-35.381-12.125-41.326-30.169l-52.213-158.71v321.28c0 24.334 19.543 44.133 43.564 44.133h408.54c24.021 0 43.564-19.798 43.564-44.133v-321.27l-52.217 158.7c-5.9409 18.044-22.546 30.169-41.322 30.169z"
			style="stroke-width:14.616;stroke:#000000" />

	</g>
	<g>
		<path
			d="m314.09 5.3807h-116.17c-24.021 0-43.564 19.798-43.564 44.133v14.711h-121.2l54.769 166.48c1.9854 6.0184 7.5292 10.056 13.784 10.056h81.687v-14.711c0-8.1293 6.4968-14.711 14.521-14.711h116.17c8.0246 0 14.521 6.5816 14.521 14.711v14.711h81.687c6.2548 0 11.799-4.0379 13.784-10.056l54.773-166.48h-121.2v-14.711c0-24.334-19.543-44.133-43.564-44.133zm-130.69 58.844v-14.711c0-8.1178 6.5082-14.711 14.521-14.711h116.17c8.0133 0 14.521 6.5931 14.521 14.711v14.711z"
			style="stroke-width:14.616;stroke:#000000" />
	</g>
</svg>