<svg enable-background="new 0 0 512 512" version="1.1" viewBox="0 0 512 512" xmlns="http://www.w3.org/2000/svg">
	<g transform="matrix(1.0041 0 0 .97167 -1.7348 7.6426)" style="stroke-width:7.5932;stroke:#000000">
		<path
			d="m386.37 165.92c0-10.2-8.299-18.499-18.499-18.499h-1.242c-1.589 0-2.96-1.085-3.41-2.701-2.133-7.646-5.101-15.084-8.824-22.107-0.765-1.442-0.544-3.146 0.551-4.239l0.633-0.633c7.212-7.213 7.212-18.95 0-26.162l-14.785-14.784c-7.229-7.229-18.932-7.231-26.162 0l-0.138 0.138c-1.12 1.119-2.85 1.325-4.311 0.509-7.212-4.026-14.878-7.244-22.785-9.564-1.44-0.423-2.446-1.793-2.446-3.377 0-10.201-8.298-18.499-18.498-18.499h-20.908c-10.201 0-18.499 8.299-18.499 18.543 0 1.54-1.006 2.91-2.445 3.333-7.908 2.321-15.574 5.539-22.785 9.564-1.46 0.814-3.192 0.611-4.32-0.518l-0.13-0.129c-7.223-7.223-18.932-7.231-26.161 0l-14.784 14.783c-7.229 7.229-7.231 18.931 0 26.162l0.633 0.633c1.093 1.094 1.314 2.798 0.55 4.239-3.723 7.021-6.692 14.459-8.824 22.106-0.451 1.616-1.821 2.702-3.41 2.702h-1.243c-10.201 0-18.499 8.299-18.499 18.499v20.907c0 10.201 8.299 18.499 18.499 18.499h2.228c1.538 0 2.897 1.04 3.381 2.589 2.293 7.342 5.37 14.474 9.145 21.197 0.727 1.295 0.464 2.97-0.639 4.073l-1.821 1.82c-7.229 7.229-7.231 18.931 0 26.162l14.783 14.783c7.228 7.228 18.931 7.232 26.161 0l2.315-2.314c1.078-1.079 2.725-1.357 4.005-0.674 6.659 3.551 13.701 6.428 20.93 8.548 1.432 0.42 2.431 1.813 2.431 3.389v3.346c0 10.2 8.299 18.499 18.499 18.499h20.908c10.2 0 18.498-8.299 18.498-18.499v-3.346c0-1.576 1-2.969 2.431-3.389 7.23-2.121 14.272-4.997 20.93-8.548 1.279-0.682 2.927-0.405 4.006 0.675l2.313 2.313c7.228 7.229 18.931 7.231 26.163 0l14.784-14.784c7.212-7.213 7.212-18.949-1e-3 -26.162l-1.82-1.819c-1.103-1.104-1.367-2.78-0.641-4.073 3.775-6.721 6.852-13.853 9.147-21.199 0.483-1.548 1.842-2.588 3.38-2.588h2.228c10.2 0 18.499-8.299 18.499-18.499v-20.905zm-14.999 20.907c0 1.931-1.57 3.501-3.501 3.501h-2.228c-8.135 0-15.248 5.271-17.697 13.115-1.983 6.349-4.643 12.515-7.908 18.326-4.003 7.13-2.723 16.186 3.113 22.024l1.82 1.82c1.365 1.365 1.365 3.586 0 4.951l-14.783 14.783c-1.367 1.367-3.583 1.369-4.952 0l-2.313-2.313c-5.705-5.706-14.617-7.066-21.669-3.303-5.756 3.07-11.844 5.556-18.094 7.39-7.777 2.281-13.208 9.593-13.208 17.781v3.346c0 1.93-1.57 3.5-3.5 3.5h-20.908c-1.931 0-3.501-1.57-3.501-3.5v-3.346c0-8.188-5.432-15.5-13.208-17.781-6.248-1.833-12.335-4.319-18.093-7.39-2.667-1.422-5.599-2.113-8.523-2.113-4.809 0-9.597 1.867-13.145 5.415l-2.315 2.314c-1.366 1.366-3.581 1.368-4.95 0l-14.784-14.783c-1.366-1.367-1.368-3.582 0-4.951l1.821-1.821c5.836-5.836 7.116-14.892 3.112-22.023-3.264-5.813-5.924-11.979-7.907-18.326-2.45-7.845-9.562-13.116-17.697-13.116h-2.228c-1.93 0-3.501-1.57-3.501-3.501v-20.907c0-1.93 1.57-3.5 3.501-3.5h1.243c8.269 0 15.612-5.622 17.857-13.671 1.844-6.61 4.41-13.039 7.629-19.11 3.87-7.3 2.585-16.089-3.196-21.87l-0.633-0.633c-1.366-1.367-1.368-3.582 0-4.951l14.784-14.784c0.892-0.892 1.933-1.025 2.474-1.025s1.583 0.133 2.485 1.035l0.129 0.129c5.821 5.822 14.962 7.056 22.228 3 6.235-3.481 12.863-6.263 19.698-8.269 7.784-2.284 13.22-9.573 13.22-17.769 0-1.931 1.57-3.501 3.501-3.501h20.908c1.93 0 3.5 1.57 3.5 3.545 0 8.151 5.437 15.44 13.222 17.725 6.834 2.005 13.462 4.787 19.698 8.268 7.265 4.055 16.406 2.822 22.228-2.999l0.139-0.139c1.365-1.366 3.583-1.368 4.95 0l14.784 14.784c1.365 1.365 1.365 3.586 0 4.951l-0.632 0.632c-5.783 5.782-7.067 14.571-3.197 21.871 3.218 6.071 5.786 12.501 7.628 19.11 2.245 8.049 9.588 13.671 17.858 13.671h1.242c1.931 0 3.501 1.57 3.501 3.5v20.908z"
			style="stroke-width:7.5932;stroke:#000000" />
		<path
			d="m256 96.26c-43.25 0-78.437 35.187-78.437 78.437 0 43.311 35.298 78.437 78.437 78.437 43.144 0 78.437-35.132 78.437-78.437 0-43.25-35.187-78.437-78.437-78.437zm0 141.88c-17.739 0-33.792-7.328-45.316-19.104 6.929-10.753 17.429-18.719 29.671-22.424 4.679 2.462 10 3.864 15.645 3.864s10.965-1.401 15.645-3.864c12.243 3.705 22.743 11.671 29.672 22.424-11.525 11.776-27.578 19.104-45.317 19.104zm-18.715-71.379c0-10.319 8.395-18.715 18.715-18.715s18.715 8.395 18.715 18.715c0 10.319-8.396 18.715-18.715 18.715s-18.715-8.395-18.715-18.715zm73.561 39.76c-6.999-9.208-16.188-16.494-26.717-21.204 3.526-5.327 5.586-11.704 5.586-18.556 0-18.59-15.124-33.714-33.714-33.714s-33.714 15.124-33.714 33.714c0 6.852 2.06 13.229 5.585 18.556-10.529 4.71-19.719 11.996-26.718 21.205-5.453-9.362-8.593-20.228-8.593-31.82 0-34.98 28.459-63.439 63.439-63.439s63.438 28.459 63.438 63.439c0 11.592-3.14 22.458-8.592 31.819z"
			style="stroke-width:7.5932;stroke:#000000" />
		<path
			d="m381.26 51.619c-33.873-33.629-78.869-51.966-126.58-51.614-40.215 0.291-78.124 13.808-109.63 39.09-38.959 35.571-29.07 32.225-26.478 35.456 2.593 3.229 261.33 207.52 264.56 204.92 28.845-23.148 32.206-60.353 35.653-101.68 43.742-0.321-79.116-146.32-48.102-115.53 31.02 30.796 48.102 71.827 48.102 115.53 0 37.393-12.329 72.551-35.653 101.68-2.59 3.233-2.068 7.952 1.165 10.542 1.384 1.108 3.039 1.646 4.683 1.646 2.199 0 4.378-0.962 5.858-2.812 25.115-31.358 38.946-70.796 38.946-111.05 0-47.734-18.657-92.545-52.534-126.18z"
			style="stroke-width:7.5932;stroke:#000000" />
		<path
			d="m370.94 305.2c-3.34-2.448 17.966-23.273 15.517-19.932-10.254 13.982-44.897 50.629-51.775 66.487h-157.26c-10.179-23.552-24.116-45.067-41.482-64.018-27.38-29.877 167.53 249.8 167.35 209.26-0.168-37.868 52.771-188.31 77.037-217.64 2.64-3.192-247.56-212.95-250.75-215.59-3.192-2.641-7.919-2.192-10.558 0.999-26.5 32.041-40.993 72.472-40.809 113.85 0.196 44.281 16.774 86.638 46.678 119.27 15.624 17.05 28.269 36.327 37.681 57.379-7.727 4.488-12.939 12.851-12.939 22.412 0 7.193 2.949 13.709 7.698 18.407-4.749 4.699-7.698 11.214-7.698 18.407s2.949 13.708 7.698 18.407c-4.749 4.699-7.698 11.214-7.698 18.407 0 14.284 11.622 25.906 25.906 25.906h0.477v2.098c0 18.033 14.671 32.704 32.704 32.704h94.576c18.034 0 32.704-14.671 32.704-32.704v-2.098h0.477c14.285 0 25.906-11.622 25.906-25.906 0-7.193-2.948-13.708-7.698-18.407 4.749-4.699 7.698-11.214 7.698-18.407s-2.948-13.708-7.698-18.407c4.749-4.699 7.698-11.214 7.698-18.407 0-9.532-5.178-17.872-12.866-22.371 6.253-13.946 34.827-52.59 43.894-64.955 2.449-3.341-19.123 17.313-22.462 14.864zm-49.948 174.09c0 9.763 46.394-59.265 37.727-63.91l-199.56-106.96c-8.6665-4.6453 22.52 143.63 31.84 170.87v-2.098h129.99v2.098zm-97.818-38.912h113.29c6.014 0 10.907 4.893 10.907 10.907s-4.9242 11.54-10.907 10.907l-167.81-17.743c-5.9828-0.63257-4.0392 12.85-4.0392 6.8356s4.893-10.907 10.907-10.907h12.585c4.142 0 7.499-3.358 7.499-7.499s-4.4687-4.5826-7.499-7.499l-18.962-18.25c-4.401-4.2355-4.5297 13.357-4.5297 7.3425s4.893-10.907 10.907-10.907h160.94c6.014 0 10.907 4.893 10.907 10.907s-4.893 10.907-10.907 10.907h-113.29c-4.142 0-7.499 3.358-7.499 7.499s3.357 7.499 7.499 7.499zm123.59-69.048-171.24 17.236c-5.9857 0.60246-10.907-4.893-10.907-10.908 0-5.327 3.841-9.767 8.898-10.714 0.161-0.021 0.323-0.042 0.484-0.074 0.5-0.07 1.007-0.12 1.526-0.12h160.94c0.544 0 1.075 0.053 1.599 0.131 0.167 0.033 0.334 0.055 0.501 0.077 5.012 0.982 8.807 5.404 8.807 10.7-1e-3 6.015 5.3794-6.9301-0.60628-6.3276z"
			style="stroke-width:7.5932;stroke:#000000" />
	</g>
	<g>
		<path
			d="m199.08 502.6c-13.075-3.021-24.89-15.395-26.833-28.102-0.64305-4.2056-0.87372-4.4757-4.2787-5.0104-5.7776-0.90722-14.049-6.3432-17.624-11.583-6.1639-9.0336-6.6764-18.635-1.4954-28.016l2.8458-5.1531-2.2504-3.2211c-5.2549-7.5213-5.2808-20.152-0.0572-27.871l2.2867-3.3794-3.0096-5.3819c-2.5588-4.5759-3.0058-6.3949-2.9845-12.145 0.0301-8.1011 2.4012-13.912 7.8617-19.267l3.7075-3.6361-1.7067-3.5238c-6.9151-14.278-18.578-30.534-34.413-47.967-28.143-30.983-43.023-63.274-46.971-101.93-2.082-20.385 0.93569-45.353 7.9784-66.011 10.611-31.126 26.842-54.287 55.141-78.683 24.278-20.93 56.276-35.082 91.241-40.353 12.886-1.9425 39.092-1.9334 53.272 0.01864 65.097 8.961 120.55 51.731 144.12 111.15 8.093 20.407 11.312 40.124 10.561 64.696-0.83135 27.212-6.2093 47.56-19.023 71.979-6.4817 12.352-8.9823 15.912-34.008 48.426-15.027 19.523-29.428 40.024-29.428 41.893 0 0.59812 1.5221 2.5344 3.3825 4.3028 8.8025 8.3674 10.343 25.943 2.9734 33.929-1.2887 1.3966-1.1064 2.225 1.638 7.4439 4.4155 8.3966 4.4422 16.174 0.0838 24.462-3.0836 5.8638-3.1016 5.978-1.3406 8.4901 7.0692 10.084 5.5796 23.94-3.5841 33.338-3.8223 3.9197-12.036 8.3129-15.572 8.329-1.7406 8e-3 -2.3392 1.0596-3.7146 6.5255-3.125 12.419-11.814 21.558-24.115 25.363-5.9564 1.8426-8.807 1.932-58.616 1.8397-28.795-0.0535-54.024-0.48275-56.064-0.95417z"
			style="fill:none;stroke-linecap:round;stroke-linejoin:round;stroke-width:5;stroke:#000000" />
	</g>
	<g>
		<g transform="matrix(1.0041 0 0 .97167 -1.7368 7.6426)" style="fill:none;stroke-width:5.062;stroke:#000000">
			<path
				d="m386.37 165.92c0-10.2-8.299-18.499-18.499-18.499h-1.242c-1.589 0-2.96-1.085-3.41-2.701-2.133-7.646-5.101-15.084-8.824-22.107-0.765-1.442-0.544-3.146 0.551-4.239l0.633-0.633c7.212-7.213 7.212-18.95 0-26.162l-14.785-14.784c-7.229-7.229-18.932-7.231-26.162 0l-0.138 0.138c-1.12 1.119-2.85 1.325-4.311 0.509-7.212-4.026-14.878-7.244-22.785-9.564-1.44-0.423-2.446-1.793-2.446-3.377 0-10.201-8.298-18.499-18.498-18.499h-20.908c-10.201 0-18.499 8.299-18.499 18.543 0 1.54-1.006 2.91-2.445 3.333-7.908 2.321-15.574 5.539-22.785 9.564-1.46 0.814-3.192 0.611-4.32-0.518l-0.13-0.129c-7.223-7.223-18.932-7.231-26.161 0l-14.784 14.783c-7.229 7.229-7.231 18.931 0 26.162l0.633 0.633c1.093 1.094 1.314 2.798 0.55 4.239-3.723 7.021-6.692 14.459-8.824 22.106-0.451 1.616-1.821 2.702-3.41 2.702h-1.243c-10.201 0-18.499 8.299-18.499 18.499v20.907c0 10.201 8.299 18.499 18.499 18.499h2.228c1.538 0 2.897 1.04 3.381 2.589 2.293 7.342 5.37 14.474 9.145 21.197 0.727 1.295 0.464 2.97-0.639 4.073l-1.821 1.82c-7.229 7.229-7.231 18.931 0 26.162l14.783 14.783c7.228 7.228 18.931 7.232 26.161 0l2.315-2.314c1.078-1.079 2.725-1.357 4.005-0.674 6.659 3.551 13.701 6.428 20.93 8.548 1.432 0.42 2.431 1.813 2.431 3.389v3.346c0 10.2 8.299 18.499 18.499 18.499h20.908c10.2 0 18.498-8.299 18.498-18.499v-3.346c0-1.576 1-2.969 2.431-3.389 7.23-2.121 14.272-4.997 20.93-8.548 1.279-0.682 2.927-0.405 4.006 0.675l2.313 2.313c7.228 7.229 18.931 7.231 26.163 0l14.784-14.784c7.212-7.213 7.212-18.949-1e-3 -26.162l-1.82-1.819c-1.103-1.104-1.367-2.78-0.641-4.073 3.775-6.721 6.852-13.853 9.147-21.199 0.483-1.548 1.842-2.588 3.38-2.588h2.228c10.2 0 18.499-8.299 18.499-18.499v-20.905zm-14.999 20.907c0 1.931-1.57 3.501-3.501 3.501h-2.228c-8.135 0-15.248 5.271-17.697 13.115-1.983 6.349-4.643 12.515-7.908 18.326-4.003 7.13-2.723 16.186 3.113 22.024l1.82 1.82c1.365 1.365 1.365 3.586 0 4.951l-14.783 14.783c-1.367 1.367-3.583 1.369-4.952 0l-2.313-2.313c-5.705-5.706-14.617-7.066-21.669-3.303-5.756 3.07-11.844 5.556-18.094 7.39-7.777 2.281-13.208 9.593-13.208 17.781v3.346c0 1.93-1.57 3.5-3.5 3.5h-20.908c-1.931 0-3.501-1.57-3.501-3.5v-3.346c0-8.188-5.432-15.5-13.208-17.781-6.248-1.833-12.335-4.319-18.093-7.39-2.667-1.422-5.599-2.113-8.523-2.113-4.809 0-9.597 1.867-13.145 5.415l-2.315 2.314c-1.366 1.366-3.581 1.368-4.95 0l-14.784-14.783c-1.366-1.367-1.368-3.582 0-4.951l1.821-1.821c5.836-5.836 7.116-14.892 3.112-22.023-3.264-5.813-5.924-11.979-7.907-18.326-2.45-7.845-9.562-13.116-17.697-13.116h-2.228c-1.93 0-3.501-1.57-3.501-3.501v-20.907c0-1.93 1.57-3.5 3.501-3.5h1.243c8.269 0 15.612-5.622 17.857-13.671 1.844-6.61 4.41-13.039 7.629-19.11 3.87-7.3 2.585-16.089-3.196-21.87l-0.633-0.633c-1.366-1.367-1.368-3.582 0-4.951l14.784-14.784c0.892-0.892 1.933-1.025 2.474-1.025s1.583 0.133 2.485 1.035l0.129 0.129c5.821 5.822 14.962 7.056 22.228 3 6.235-3.481 12.863-6.263 19.698-8.269 7.784-2.284 13.22-9.573 13.22-17.769 0-1.931 1.57-3.501 3.501-3.501h20.908c1.93 0 3.5 1.57 3.5 3.545 0 8.151 5.437 15.44 13.222 17.725 6.834 2.005 13.462 4.787 19.698 8.268 7.265 4.055 16.406 2.822 22.228-2.999l0.139-0.139c1.365-1.366 3.583-1.368 4.95 0l14.784 14.784c1.365 1.365 1.365 3.586 0 4.951l-0.632 0.632c-5.783 5.782-7.067 14.571-3.197 21.871 3.218 6.071 5.786 12.501 7.628 19.11 2.245 8.049 9.588 13.671 17.858 13.671h1.242c1.931 0 3.501 1.57 3.501 3.5v20.908z"
				style="fill:none;stroke-width:5.062;stroke:#000000" />
			<path
				d="m256 96.26c-43.25 0-78.437 35.187-78.437 78.437 0 43.311 35.298 78.437 78.437 78.437 43.144 0 78.437-35.132 78.437-78.437 0-43.25-35.187-78.437-78.437-78.437zm0 141.88c-17.739 0-33.792-7.328-45.316-19.104 6.929-10.753 17.429-18.719 29.671-22.424 4.679 2.462 10 3.864 15.645 3.864s10.965-1.401 15.645-3.864c12.243 3.705 22.743 11.671 29.672 22.424-11.525 11.776-27.578 19.104-45.317 19.104zm-18.715-71.379c0-10.319 8.395-18.715 18.715-18.715s18.715 8.395 18.715 18.715c0 10.319-8.396 18.715-18.715 18.715s-18.715-8.395-18.715-18.715zm73.561 39.76c-6.999-9.208-16.188-16.494-26.717-21.204 3.526-5.327 5.586-11.704 5.586-18.556 0-18.59-15.124-33.714-33.714-33.714s-33.714 15.124-33.714 33.714c0 6.852 2.06 13.229 5.585 18.556-10.529 4.71-19.719 11.996-26.718 21.205-5.453-9.362-8.593-20.228-8.593-31.82 0-34.98 28.459-63.439 63.439-63.439s63.438 28.459 63.438 63.439c0 11.592-3.14 22.458-8.592 31.819z"
				style="fill:#ffffff;stroke-width:5.062;stroke:#000000" />
			<path
				d="m381.26 51.619c-33.873-33.629-78.869-51.966-126.58-51.614-40.215 0.291-78.124 13.808-109.63 39.09-3.231 2.593-3.748 7.312-1.156 10.543 2.593 3.229 7.312 3.748 10.543 1.155 28.845-23.148 63.545-35.523 100.35-35.789 43.742-0.321 84.886 16.467 115.9 47.259 31.02 30.796 48.102 71.827 48.102 115.53 0 37.393-12.329 72.551-35.653 101.68-2.59 3.233-2.068 7.952 1.165 10.542 1.384 1.108 3.039 1.646 4.683 1.646 2.199 0 4.378-0.962 5.858-2.812 25.115-31.358 38.946-70.796 38.946-111.05 0-47.734-18.657-92.545-52.534-126.18z"
				style="fill:#ffffff;stroke-width:5.062;stroke:#000000" />
			<path
				d="m370.94 305.2c-3.34-2.448-8.034-1.728-10.483 1.613-10.254 13.982-18.897 29.084-25.775 44.942h-157.26c-10.179-23.552-24.116-45.067-41.482-64.018-27.38-29.877-42.557-68.659-42.737-109.2-0.168-37.868 13.102-74.882 37.368-104.22 2.64-3.192 2.192-7.919-0.999-10.558-3.192-2.641-7.919-2.192-10.558 0.999-26.5 32.041-40.993 72.472-40.809 113.85 0.196 44.281 16.774 86.638 46.678 119.27 15.624 17.05 28.269 36.327 37.681 57.379-7.727 4.488-12.939 12.851-12.939 22.412 0 7.193 2.949 13.709 7.698 18.407-4.749 4.699-7.698 11.214-7.698 18.407s2.949 13.708 7.698 18.407c-4.749 4.699-7.698 11.214-7.698 18.407 0 14.284 11.622 25.906 25.906 25.906h0.477v2.098c0 18.033 14.671 32.704 32.704 32.704h94.576c18.034 0 32.704-14.671 32.704-32.704v-2.098h0.477c14.285 0 25.906-11.622 25.906-25.906 0-7.193-2.948-13.708-7.698-18.407 4.749-4.699 7.698-11.214 7.698-18.407s-2.948-13.708-7.698-18.407c4.749-4.699 7.698-11.214 7.698-18.407 0-9.532-5.178-17.872-12.866-22.371 6.253-13.946 13.978-27.243 23.045-39.608 2.449-3.341 1.726-8.034-1.613-10.483zm-49.948 174.09c0 9.763-7.943 17.706-17.706 17.706h-94.576c-9.763 0-17.706-7.943-17.706-17.706v-2.098h129.99v2.098zm-97.818-38.912h113.29c6.014 0 10.907 4.893 10.907 10.907s-4.893 10.907-10.907 10.907h-160.94c-6.014 0-10.907-4.893-10.907-10.907s4.893-10.907 10.907-10.907h12.585c4.142 0 7.499-3.358 7.499-7.499s-3.358-7.499-7.499-7.499h-12.585c-6.014 0-10.907-4.893-10.907-10.907s4.893-10.907 10.907-10.907h160.94c6.014 0 10.907 4.893 10.907 10.907s-4.893 10.907-10.907 10.907h-113.29c-4.142 0-7.499 3.358-7.499 7.499s3.357 7.499 7.499 7.499zm113.29-51.812h-160.94c-6.014 0-10.907-4.893-10.907-10.908 0-5.327 3.841-9.767 8.898-10.714 0.161-0.021 0.323-0.042 0.484-0.074 0.5-0.07 1.007-0.12 1.526-0.12h160.94c0.544 0 1.075 0.053 1.599 0.131 0.167 0.033 0.334 0.055 0.501 0.077 5.012 0.982 8.807 5.404 8.807 10.7-1e-3 6.015-4.894 10.908-10.908 10.908z"
				style="fill:#ffffff;stroke-width:5.062;stroke:#000000" />
		</g>
	</g>
</svg>